<?xml version="1.0" encoding="UTF-8"?>
<svg xmlns="http://www.w3.org/2000/svg" viewBox="38 28 84 104" width="336" height="416">
  <defs><linearGradient id="grad-fc" x1="0%" y1="0%" x2="0%" y2="100%"><stop offset="0%" stop-color="#1A2744"/><stop offset="100%" stop-color="#0B1426"/></linearGradient><filter id="glow-fc"><feGaussianBlur stdDeviation="1.5" result="b"/><feMerge><feMergeNode in="b"/><feMergeNode in="SourceGraphic"/></feMerge></filter></defs>
  <path d="M80,32 C91.4,32 118,44 118,60.8 C118,84.8 102.8,106.4 80,128 C57.2,106.4 42,84.8 42,60.8 C42,44 68.6,32 80,32Z" fill="url(#grad-fc)" stroke="#EF4444" stroke-width="1.5"/>
  <g filter="url(#glow-fc)">
    <path d="M80,57 L84.66890727711811,52.55260159204647 L90.44997129431897,54.947196712918156 L90.60660171779821,61.39339828220179 L90.60660171779821,61.39339828220179 L97.05280328708184,61.55002870568102 L99.44739840795353,67.33109272288189 L95,72 L95,72 L99.44739840795353,76.66890727711811 L97.05280328708184,82.44997129431897 L90.60660171779821,82.60660171779821 L90.60660171779821,82.60660171779821 L90.44997129431897,89.05280328708184 L84.66890727711811,91.44739840795353 L80,87 L80,87 L75.33109272288189,91.44739840795353 L69.55002870568103,89.05280328708184 L69.39339828220179,82.60660171779821 L69.39339828220179,82.60660171779821 L62.947196712918156,82.44997129431898 L60.55260159204647,76.66890727711811 L65,72 L65,72 L60.552601592046464,67.3310927228819 L62.947196712918156,61.550028705681015 L69.39339828220179,61.39339828220179 L69.39339828220179,61.39339828220179 L69.55002870568102,54.94719671291816 L75.33109272288189,52.55260159204647 L80,57 Z" fill="none" stroke="#EF4444" stroke-width="1.8"/>
    <circle cx="80" cy="72" r="9" fill="none" stroke="#EF4444" stroke-width="1.2"/>
    <circle cx="80" cy="72" r="3.5" fill="#EF4444"/>
  </g>
  <path d="M75,73 L79,77 L86,69" fill="none" stroke="#FF8080" stroke-width="2" stroke-linecap="round" stroke-linejoin="round"/>
</svg>